# Blender v2.81 (sub 16) OBJ File: 'MSL_simplyfied2.blend'
# www.blender.org
mtllib drillContactSensors_L.mtl
o MAHLI.002_Mesh.009
v 0.079588 0.081373 0.319540
v 0.082259 0.086033 0.319762
v 0.082250 0.091409 0.319758
v 0.079564 0.096060 0.319530
v 0.074920 0.098740 0.319138
v 0.069563 0.098731 0.318687
v 0.064929 0.096035 0.318298
v 0.062258 0.091375 0.318076
v 0.062267 0.085999 0.318080
v 0.064953 0.081348 0.318309
v 0.069596 0.078668 0.318701
v 0.074953 0.078677 0.319151
v 0.089684 0.081308 0.199529
v 0.085049 0.078612 0.199140
v 0.079693 0.078603 0.198689
v 0.075049 0.081283 0.198297
v 0.072363 0.085934 0.198069
v 0.072354 0.091310 0.198065
v 0.075025 0.095970 0.198287
v 0.079659 0.098666 0.198676
v 0.085016 0.098675 0.199126
v 0.089660 0.095995 0.199519
v 0.092346 0.091344 0.199747
v 0.092355 0.085968 0.199751
v 0.074330 0.085976 0.327000
v 0.075326 0.087713 0.327083
v 0.075323 0.089717 0.327081
v 0.074321 0.091451 0.326996
v 0.072590 0.092450 0.326850
v 0.070593 0.092446 0.326682
v 0.068866 0.091441 0.326537
v 0.067870 0.089704 0.326454
v 0.067873 0.087700 0.326456
v 0.068875 0.085966 0.326541
v 0.070606 0.084967 0.326687
v 0.072603 0.084971 0.326855
v 0.077674 0.082960 0.323330
v 0.079768 0.086613 0.323504
v 0.079761 0.090827 0.323502
v 0.077655 0.094473 0.323322
v 0.074015 0.096574 0.323015
v 0.069815 0.096566 0.322662
v 0.066182 0.094453 0.322357
v 0.064089 0.090800 0.322183
v 0.064096 0.086586 0.322186
v 0.066201 0.082940 0.322365
v 0.069841 0.080839 0.322673
v 0.074041 0.080846 0.323026
v 0.093320 0.078140 0.197341
v 0.071840 0.078340 0.195533
v 0.071805 0.099119 0.195519
v 0.093286 0.099156 0.197326
v 0.099384 0.078127 0.162696
v 0.099349 0.099142 0.162682
v 0.073523 0.099099 0.162255
v 0.073557 0.078320 0.162270
v 0.100372 0.078081 0.093703
v 0.100337 0.099097 0.093689
v 0.083292 0.099069 0.093407
v 0.083326 0.078290 0.093422
v 0.100668 0.078064 0.067204
v 0.100634 0.099079 0.067190
v 0.080179 0.099045 0.066852
v 0.080213 0.078266 0.066867
v 0.097613 0.078041 0.042150
v 0.097578 0.099057 0.042136
v 0.088079 0.099041 0.041979
v 0.088113 0.078262 0.041994
vt 0.282282 0.704800
vt 0.284678 0.649125
vt 0.281815 0.648263
vt 0.279852 0.703930
vt 0.278770 0.648529
vt 0.277261 0.704154
vt 0.276335 0.649854
vt 0.275186 0.705412
vt 0.275153 0.651898
vt 0.274177 0.707380
vt 0.275555 0.654129
vt 0.274514 0.709543
vt 0.277458 0.655946
vt 0.276124 0.711320
vt 0.280361 0.656847
vt 0.278583 0.712221
vt 0.283472 0.656576
vt 0.281222 0.711994
vt 0.285932 0.655207
vt 0.283315 0.710700
vt 0.287074 0.653124
vt 0.284296 0.708700
vt 0.286606 0.650899
vt 0.283911 0.706541
vt 0.285516 0.649093
vt 0.283997 0.647700
vt 0.283323 0.647580
vt 0.282599 0.646914
vt 0.285879 0.650839
vt 0.283492 0.648411
vt 0.284976 0.652470
vt 0.283057 0.649184
vt 0.283038 0.653540
vt 0.282133 0.649690
vt 0.280591 0.653754
vt 0.280967 0.649792
vt 0.278305 0.653052
vt 0.279877 0.649462
vt 0.276803 0.651631
vt 0.279156 0.648790
vt 0.276479 0.649882
vt 0.278996 0.647958
vt 0.277408 0.648275
vt 0.279437 0.647191
vt 0.279330 0.647232
vt 0.280358 0.646690
vt 0.281736 0.647021
vt 0.281514 0.646589
vt 0.283672 0.704379
vt 0.273332 0.705366
vt 0.274624 0.713721
vt 0.285176 0.712812
vt 0.284495 0.717399
vt 0.285950 0.725714
vt 0.273878 0.726132
vt 0.272650 0.717887
vt 0.281258 0.740478
vt 0.282548 0.748545
vt 0.275192 0.748825
vt 0.274035 0.740835
vt 0.280107 0.748445
vt 0.281341 0.756412
vt 0.272762 0.756750
vt 0.271677 0.748856
vt 0.277739 0.755614
vt 0.278903 0.763487
vt 0.275024 0.763644
vt 0.273932 0.755852
vn 0.7058 -0.7059 0.0598
vn 0.6634 -0.6840 0.3032
vn 0.2309 -0.9356 0.2670
vn 0.1263 -0.9885 0.0827
vn -0.2691 -0.9365 0.2249
vn -0.1432 -0.9879 0.0600
vn -0.7024 -0.6864 0.1883
vn -0.7034 -0.7083 -0.0588
vn -0.9531 -0.2523 0.1670
vn -0.9886 -0.1385 0.0584
vn -0.9540 0.2494 0.1667
vn -0.9891 0.1351 0.0584
vn -0.7047 0.6843 0.1874
vn -0.7058 0.7059 -0.0598
vn -0.2722 0.9359 0.2236
vn -0.1442 0.9864 0.0783
vn 0.2278 0.9368 0.2657
vn 0.1258 0.9869 0.1010
vn 0.6612 0.6866 0.3023
vn 0.7034 0.7083 0.0588
vn 0.9118 0.2526 0.3236
vn 0.9650 0.1385 0.2228
vn 0.9127 -0.2491 0.3240
vn 0.9654 -0.1350 0.2230
vn 0.7116 -0.2034 0.6725
vn 0.5079 -0.5589 0.6555
vn 0.5913 -0.1740 0.7875
vn 0.4169 -0.4782 0.7730
vn 0.7110 0.2067 0.6722
vn 0.5907 0.1770 0.7872
vn 0.5061 0.5614 0.6547
vn 0.4153 0.4806 0.7723
vn 0.1519 0.7658 0.6248
vn 0.1122 0.6556 0.7467
vn -0.2567 0.7651 0.5905
vn -0.2376 0.6550 0.7173
vn -0.6103 0.5595 0.5608
vn -0.5402 0.4790 0.6919
vn -0.8140 0.2041 0.5439
vn -0.7145 0.1748 0.6774
vn -0.8133 -0.2060 0.5442
vn -0.7139 -0.1762 0.6777
vn -0.6084 -0.5608 0.5616
vn -0.5386 -0.4799 0.6926
vn -0.2542 -0.7652 0.5915
vn -0.2354 -0.6548 0.7182
vn 0.1544 -0.7645 0.6259
vn 0.1143 -0.6542 0.7476
vn -0.0838 0.0005 0.9965
vn 0.1699 -0.4205 0.8912
vn 0.2591 -0.3295 0.9079
vn 0.2553 -0.3337 0.9075
vn -0.0100 -0.9997 0.0226
vn -0.0100 -0.9997 0.0220
vn -0.4087 -0.3470 0.8441
vn -0.4164 -0.3384 0.8438
vn -0.3229 -0.4366 0.8397
vn -0.4943 -0.2445 0.8342
vn -1.0000 -0.0017 -0.0079
vn -1.0000 -0.0017 -0.0069
vn -0.4037 0.3355 0.8512
vn -0.4078 0.3310 0.8509
vn -0.4876 0.2394 0.8396
vn -0.3169 0.4224 0.8492
vn -0.0041 0.9996 0.0279
vn -0.0041 0.9996 0.0287
vn 0.2547 0.3366 0.9066
vn 0.2588 0.3322 0.9070
vn 0.1691 0.4233 0.8901
vn 0.3397 0.2409 0.9092
vn 0.9786 0.0018 0.2059
vn 0.9786 0.0018 0.2060
vn 0.3399 -0.2382 0.9098
vn 0.9956 0.0017 0.0937
vn -0.0017 1.0000 -0.0007
vn -0.9954 -0.0017 -0.0961
vn -0.0088 -1.0000 -0.0003
vn -0.0089 -1.0000 -0.0003
vn 0.9999 0.0017 0.0127
vn -0.9999 -0.0017 -0.0121
vn -0.0102 -0.9999 0.0006
vn 0.9985 0.0016 -0.0551
vn -0.0016 1.0000 -0.0007
vn -0.9954 -0.0017 -0.0953
vn -0.0125 -0.9999 0.0003
vn 0.9926 0.0016 -0.1211
vn -0.9531 -0.0018 -0.3027
vn -0.0141 -0.9999 -0.0008
usemtl tex_04
s 1
f 13/1/1 1/2/2 12/3/3 14/4/4
f 11/5/5 15/6/6 14/4/4 12/3/3
f 10/7/7 16/8/8 15/6/6 11/5/5
f 9/9/9 17/10/10 16/8/8 10/7/7
f 8/11/11 18/12/12 17/10/10 9/9/9
f 7/13/13 19/14/14 18/12/12 8/11/11
f 6/15/15 20/16/16 19/14/14 7/13/13
f 5/17/17 21/18/18 20/16/16 6/15/15
f 4/19/19 22/20/20 21/18/18 5/17/17
f 3/21/21 23/22/22 22/20/20 4/19/19
f 2/23/23 24/24/24 23/22/22 3/21/21
f 1/2/2 13/1/1 24/24/24 2/23/23
f 1/2/2 2/23/23 38/25/25 37/26/26
f 37/26/26 38/25/25 26/27/27 25/28/28
f 2/23/23 3/21/21 39/29/29 38/25/25
f 38/25/25 39/29/29 27/30/30 26/27/27
f 3/21/21 4/19/19 40/31/31 39/29/29
f 39/29/29 40/31/31 28/32/32 27/30/30
f 4/19/19 5/17/17 41/33/33 40/31/31
f 40/31/31 41/33/33 29/34/34 28/32/32
f 5/17/17 6/15/15 42/35/35 41/33/33
f 41/33/33 42/35/35 30/36/36 29/34/34
f 6/15/15 7/13/13 43/37/37 42/35/35
f 42/35/35 43/37/37 31/38/38 30/36/36
f 7/13/13 8/11/11 44/39/39 43/37/37
f 43/37/37 44/39/39 32/40/40 31/38/38
f 8/11/11 9/9/9 45/41/41 44/39/39
f 44/39/39 45/41/41 33/42/42 32/40/40
f 9/9/9 10/7/7 46/43/43 45/41/41
f 45/41/41 46/43/43 34/44/44 33/42/42
f 10/7/7 11/5/5 47/45/45 46/43/43
f 46/43/43 47/45/45 35/46/46 34/44/44
f 11/5/5 12/3/3 48/47/47 47/45/45
f 47/45/45 48/47/47 36/48/48 35/46/46
f 12/3/3 1/2/2 37/26/26 48/47/47
f 48/47/47 37/26/26 25/28/28 36/48/48
f 26/27/49 27/30/49 28/32/49 25/28/49
f 25/28/49 28/32/49 29/34/49 36/48/49
f 36/48/49 29/34/49 30/36/49 35/46/49
f 35/46/49 30/36/49 31/38/49 34/44/49
f 34/44/49 31/38/49 32/40/49 33/42/49
f 14/4/50 49/49/51 13/1/52
f 15/6/6 50/50/53 49/49/54 14/4/4
f 16/8/55 50/50/56 15/6/57
f 17/10/58 50/50/56 16/8/55
f 18/12/12 51/51/59 50/50/60 17/10/10
f 19/14/61 51/51/62 18/12/63
f 20/16/64 51/51/62 19/14/61
f 21/18/18 52/52/65 51/51/66 20/16/16
f 22/20/67 52/52/68 21/18/69
f 23/22/70 52/52/68 22/20/67
f 24/24/24 49/49/71 52/52/72 23/22/22
f 13/1/52 49/49/51 24/24/73
f 49/49/71 53/53/74 54/54/74 52/52/72
f 52/52/65 54/54/75 55/55/75 51/51/66
f 51/51/59 55/55/76 56/56/76 50/50/60
f 50/50/53 56/56/77 53/53/78 49/49/54
f 53/53/74 57/57/79 58/58/79 54/54/74
f 54/54/75 58/58/75 59/59/75 55/55/75
f 55/55/76 59/59/80 60/60/80 56/56/76
f 56/56/77 60/60/81 57/57/81 53/53/78
f 57/57/79 61/61/82 62/62/82 58/58/79
f 58/58/75 62/62/83 63/63/83 59/59/75
f 59/59/80 63/63/84 64/64/84 60/60/80
f 60/60/81 64/64/85 61/61/85 57/57/81
f 61/61/82 65/65/86 66/66/86 62/62/82
f 62/62/83 66/66/75 67/67/75 63/63/83
f 63/63/84 67/67/87 68/68/87 64/64/84
f 64/64/85 68/68/88 65/65/88 61/61/85
