# Blender v2.81 (sub 16) OBJ File: 'MSL_simplyfied2.blend'
# www.blender.org
mtllib sam & chemin cover.mtl
o Chemin_cover_cover_01_10253000_1_MSL_Ro.000
v -0.026565 -0.013921 -0.019611
v -0.073574 0.030248 -0.027383
v -0.073574 0.030248 -0.031533
v -0.020323 0.002879 -0.003139
v -0.007993 0.002879 -0.012083
v -0.020323 0.002879 -0.019611
v -0.026565 -0.013921 -0.003139
v -0.007993 -0.013921 0.011917
v -0.007993 -0.013921 -0.012083
v -0.007993 0.002879 0.011917
v 0.000075 -0.013921 0.011917
v 0.000075 0.002879 0.011917
v 0.000075 -0.013921 -0.012083
v 0.000075 0.002879 -0.012083
v -0.112989 0.081615 -0.027383
v -0.112989 0.081615 -0.031533
v -0.118178 0.074853 -0.031533
v -0.122553 0.058526 -0.027383
v -0.122553 0.058526 -0.031533
v -0.112989 0.035438 -0.031533
v -0.098351 0.026986 -0.031533
v -0.089900 0.025874 -0.027383
v -0.058360 0.050075 -0.027383
v -0.061622 0.042200 -0.027383
v -0.061622 0.042200 -0.031533
v -0.058360 0.050075 -0.031533
v -0.058360 0.066978 -0.027383
v -0.061622 0.074853 -0.027383
v -0.073574 0.086804 -0.027383
v -0.073574 0.086804 -0.031533
v -0.081449 0.090066 -0.031533
v -0.098351 0.090066 -0.027383
v -0.081449 0.026986 -0.031533
v -0.106226 0.030248 -0.031533
v -0.118178 0.042200 -0.031533
v -0.121440 0.050075 -0.031533
v -0.121440 0.066977 -0.031533
v -0.057248 0.058526 -0.031533
v -0.058360 0.066978 -0.031533
v -0.061622 0.074853 -0.031533
v -0.106227 0.086804 -0.031533
v -0.066811 0.081615 -0.031533
v -0.098351 0.090066 -0.031533
v -0.089900 0.025874 -0.031533
v -0.089900 0.091179 -0.031533
v -0.112989 0.035438 -0.027383
v -0.106226 0.030248 -0.027383
v -0.081449 0.026986 -0.027383
v -0.118178 0.042200 -0.027383
v -0.121440 0.050075 -0.027383
v -0.121440 0.066977 -0.027383
v -0.057248 0.058526 -0.027383
v -0.118178 0.074853 -0.027383
v -0.106227 0.086804 -0.027383
v -0.066811 0.081615 -0.027383
v -0.098351 0.026986 -0.027383
v -0.081449 0.090066 -0.027383
v -0.089900 0.091179 -0.027383
vt 0.130649 0.778763
vt 0.136653 0.778763
vt 0.136653 0.778763
vt 0.130649 0.778763
vt 0.151851 0.793043
vt 0.151851 0.793043
vt 0.128041 0.778763
vt 0.128041 0.778763
vt 0.128041 0.784194
vt 0.128041 0.784194
vt 0.134636 0.784194
vt 0.147987 0.796907
vt 0.147987 0.796907
vt 0.134636 0.784194
vt 0.130649 0.784194
vt 0.130649 0.784194
vt 0.166272 0.807463
vt 0.164594 0.809650
vt 0.164594 0.809650
vt 0.166272 0.807463
vt 0.167326 0.804917
vt 0.167326 0.804917
vt 0.167686 0.802185
vt 0.167686 0.802185
vt 0.167326 0.799453
vt 0.167326 0.799453
vt 0.166272 0.796907
vt 0.166272 0.796907
vt 0.164594 0.794721
vt 0.164594 0.794721
vt 0.162408 0.793043
vt 0.162408 0.793043
vt 0.159862 0.791988
vt 0.159862 0.791988
vt 0.157129 0.791629
vt 0.157129 0.791629
vt 0.154397 0.791988
vt 0.154397 0.791988
vt 0.146933 0.799453
vt 0.146933 0.799453
vt 0.146573 0.802185
vt 0.146573 0.802185
vt 0.146933 0.804917
vt 0.146933 0.804917
vt 0.147987 0.807463
vt 0.147987 0.807463
vt 0.149665 0.809650
vt 0.149665 0.809650
vt 0.151851 0.811327
vt 0.151851 0.811327
vt 0.154397 0.812382
vt 0.154397 0.812382
vt 0.157130 0.812742
vt 0.157130 0.812742
vt 0.159862 0.812382
vt 0.159862 0.812382
vt 0.162408 0.811327
vt 0.162408 0.811327
vt 0.277631 0.855631
vt 0.248499 0.852226
vt 0.254319 0.850085
vt 0.272632 0.852226
vt 0.281466 0.860070
vt 0.239665 0.860070
vt 0.283877 0.865238
vt 0.284699 0.870784
vt 0.237254 0.865238
vt 0.283877 0.876331
vt 0.236432 0.870785
vt 0.281466 0.881499
vt 0.237254 0.876331
vt 0.277631 0.885938
vt 0.239665 0.881499
vt 0.272632 0.889343
vt 0.243501 0.885938
vt 0.266812 0.891484
vt 0.248499 0.889343
vt 0.267616 0.845923
vt 0.254494 0.845923
vt 0.261055 0.845124
vt 0.266812 0.850085
vt 0.254319 0.891484
vt 0.260566 0.892214
vn 0.0000 -1.0000 0.0000
vn -0.2558 -0.9667 0.0000
vn -0.4381 -0.8989 0.0000
vn -0.6847 -0.7288 0.0000
vn 1.0000 0.0000 0.0000
vn 0.4687 0.8834 0.0000
vn 0.6896 0.7242 0.0000
vn 0.2371 0.9715 0.0000
vn 0.0000 1.0000 0.0000
vn 0.3078 -0.0936 -0.9468
vn 0.1657 -0.1048 -0.9806
vn 0.3008 -0.0942 -0.9490
vn 0.4366 -0.0811 -0.8960
vn -0.5252 0.1676 0.8343
vn -0.5101 0.1706 0.8430
vn -0.3183 0.2014 0.9264
vn -0.6921 0.1286 0.7103
vn 0.0000 0.0000 1.0000
vn 0.0000 0.0000 -1.0000
vn 0.7071 -0.7071 0.0000
vn -0.8660 0.5000 0.0000
vn -0.7071 0.7071 0.0000
vn -0.9659 0.2588 0.0000
vn -1.0000 -0.0000 0.0000
vn -0.9659 -0.2588 0.0000
vn -0.8660 -0.5000 0.0000
vn -0.7071 -0.7071 0.0000
vn -0.5000 -0.8660 0.0000
vn -0.2588 -0.9659 0.0000
vn 0.2588 -0.9659 0.0000
vn 0.3827 -0.9239 0.0000
vn 0.9659 -0.2588 0.0000
vn 0.9239 -0.3827 0.0000
vn 0.9659 0.2588 0.0000
vn 0.8660 0.5000 0.0000
vn 0.7071 0.7071 0.0000
vn 0.5000 0.8660 0.0000
vn 0.2588 0.9659 0.0000
vn -0.2588 0.9659 0.0000
vn -0.5000 0.8660 0.0000
usemtl tex_01
s 1
f 8/1/1 7/2/2 1/3/3 9/4/1
f 7/2/2 2/5/4 3/6/4 1/3/3
f 11/7/5 13/8/5 14/9/5 12/10/5
f 6/11/6 25/12/7 24/13/7 4/14/8
f 5/15/9 6/11/6 4/14/8 10/16/9
f 1/3/10 3/6/11 25/12/11 6/11/12
f 9/4/13 1/3/10 6/11/12 5/15/13
f 7/2/14 4/14/15 24/13/16 2/5/16
f 8/1/17 10/16/17 4/14/15 7/2/14
f 11/7/1 8/1/1 9/4/1 13/8/1
f 14/9/9 5/15/9 10/16/9 12/10/9
f 10/16/18 8/1/18 11/7/18 12/10/18
f 13/8/19 9/4/19 5/15/19 14/9/19
f 24/13/20 2/5/20 3/6/20 25/12/20
f 53/17/21 15/18/22 16/19/22 17/20/21
f 51/21/23 53/17/21 17/20/21 37/22/23
f 18/23/24 51/21/23 37/22/23 19/24/24
f 50/25/25 18/23/24 19/24/24 36/26/25
f 49/27/26 50/25/25 36/26/25 35/28/26
f 46/29/27 49/27/26 35/28/26 20/30/27
f 47/31/28 46/29/27 20/30/27 34/32/28
f 56/33/29 47/31/28 34/32/28 21/34/29
f 22/35/1 56/33/29 21/34/29 44/36/1
f 48/37/30 22/35/1 44/36/1 33/38/30
f 2/5/31 48/37/30 33/38/30 3/6/31
f 23/39/32 24/13/33 25/12/33 26/40/32
f 52/41/5 23/39/32 26/40/32 38/42/5
f 27/43/34 52/41/5 38/42/5 39/44/34
f 28/45/35 27/43/34 39/44/34 40/46/35
f 55/47/36 28/45/35 40/46/35 42/48/36
f 29/49/37 55/47/36 42/48/36 30/50/37
f 57/51/38 29/49/37 30/50/37 31/52/38
f 58/53/9 57/51/38 31/52/38 45/54/9
f 32/55/39 58/53/9 45/54/9 43/56/39
f 43/56/39 41/57/40 54/58/40 32/55/39
f 16/19/22 15/18/22 54/58/40 41/57/40
f 20/59/19 3/60/19 33/61/19 34/62/19
f 35/63/19 25/64/19 3/60/19 20/59/19
f 36/65/19 25/64/19 35/63/19
f 19/66/19 26/67/19 25/64/19 36/65/19
f 37/68/19 38/69/19 26/67/19 19/66/19
f 17/70/19 39/71/19 38/69/19 37/68/19
f 16/72/19 40/73/19 39/71/19 17/70/19
f 41/74/19 42/75/19 40/73/19 16/72/19
f 42/75/19 41/74/19 43/76/19 30/77/19
f 21/78/19 33/79/19 44/80/19
f 21/81/19 34/62/19 33/61/19
f 43/76/19 31/82/19 30/77/19
f 43/76/19 45/83/19 31/82/19
f 46/29/18 47/31/18 48/37/18 2/5/18
f 49/27/18 46/29/18 2/5/18 24/13/18
f 50/25/18 49/27/18 24/13/18
f 18/23/18 50/25/18 24/13/18 23/39/18
f 51/21/18 18/23/18 23/39/18 52/41/18
f 53/17/18 51/21/18 52/41/18 27/43/18
f 15/18/18 53/17/18 27/43/18 28/45/18
f 54/58/18 15/18/18 28/45/18 55/47/18
f 32/55/18 54/58/18 55/47/18 29/49/18
f 56/33/18 22/35/18 48/37/18
f 56/33/18 48/37/18 47/31/18
f 32/55/18 29/49/18 57/51/18
f 32/55/18 57/51/18 58/53/18
