# Blender v2.81 (sub 16) OBJ File: 'MSL_simplyfied2.blend'
# www.blender.org
mtllib sam_cover.mtl
o SAM_cover_1_cover_03_Cylinder.000
v -0.010213 0.045640 -0.031832
v 0.015664 0.045640 -0.027682
v 0.002875 0.006928 0.011918
v -0.021182 0.100784 -0.027682
v -0.010213 0.108113 -0.027682
v 0.015664 0.108113 -0.027682
v 0.026633 0.100784 -0.027682
v 0.026633 0.100784 -0.031832
v 0.033962 0.089815 -0.027682
v 0.033962 0.089815 -0.031832
v 0.036535 0.076877 -0.027682
v 0.033962 0.063938 -0.027682
v 0.033962 0.063938 -0.031832
v 0.026633 0.052969 -0.027682
v -0.021182 0.052969 -0.031832
v -0.028511 0.063938 -0.027682
v -0.031085 0.076877 -0.027682
v -0.031085 0.076877 -0.031832
v -0.028511 0.089815 -0.027682
v 0.002725 0.110687 -0.027682
v 0.015664 0.108113 -0.031832
v 0.002725 0.110687 -0.031832
v -0.028511 0.063938 -0.031832
v 0.026633 0.052969 -0.031832
v -0.028511 0.089815 -0.031832
v 0.036535 0.076877 -0.031832
v -0.021182 0.100784 -0.031832
v -0.010213 0.108113 -0.031832
v -0.021182 0.052969 -0.027682
v -0.010213 0.045640 -0.027682
v -0.013924 0.006928 0.011918
v 0.002875 0.006928 -0.012082
v 0.015664 0.045640 -0.031832
v -0.013924 -0.000075 0.011918
v 0.002875 -0.000075 0.011918
v 0.002875 -0.000075 -0.012082
v -0.013924 0.006928 -0.012082
v -0.013924 -0.000075 -0.012082
vt 0.155661 0.771743
vt 0.154256 0.786404
vt 0.154256 0.786404
vt 0.155661 0.771743
vt 0.149299 0.771743
vt 0.144455 0.786404
vt 0.144455 0.786404
vt 0.149299 0.771743
vt 0.158410 0.807288
vt 0.158410 0.807288
vt 0.154256 0.810064
vt 0.154256 0.810064
vt 0.149356 0.811039
vt 0.149356 0.811039
vt 0.144455 0.810064
vt 0.140301 0.807288
vt 0.140301 0.807288
vt 0.144455 0.810064
vt 0.137526 0.803134
vt 0.137526 0.803134
vt 0.136551 0.798234
vt 0.136551 0.798234
vt 0.137526 0.793334
vt 0.137526 0.793334
vt 0.140301 0.789180
vt 0.140301 0.789180
vt 0.158410 0.789180
vt 0.158410 0.789180
vt 0.161185 0.793334
vt 0.161185 0.793334
vt 0.162160 0.798234
vt 0.162160 0.798234
vt 0.161185 0.803134
vt 0.161185 0.803134
vt 0.242844 0.854957
vt 0.250879 0.850155
vt 0.269834 0.850155
vt 0.277869 0.854957
vt 0.283238 0.862145
vt 0.285123 0.870623
vt 0.283238 0.879101
vt 0.277869 0.886288
vt 0.269835 0.891091
vt 0.260357 0.892777
vt 0.250879 0.891091
vt 0.242844 0.886289
vt 0.237475 0.879101
vt 0.235590 0.870623
vt 0.237475 0.862145
vt 0.155661 0.769091
vt 0.149299 0.769091
vt 0.149299 0.769091
vt 0.155661 0.769091
vn -0.9954 0.0954 0.0000
vn -0.9483 -0.3175 0.0000
vn -0.8537 -0.5208 0.0000
vn 0.9495 -0.3137 0.0000
vn 0.7596 -0.6503 0.0000
vn 0.8350 -0.5503 0.0000
vn -0.7071 0.7071 0.0000
vn -0.3827 0.9239 0.0000
vn -0.1951 0.9808 0.0000
vn 0.5556 0.8315 0.0000
vn 0.7071 0.7071 0.0000
vn 0.9239 0.3827 0.0000
vn 1.0000 0.0000 0.0000
vn 0.9239 -0.3827 0.0000
vn 0.7071 -0.7071 0.0000
vn -0.7071 -0.7071 0.0000
vn -0.9239 -0.3827 0.0000
vn -1.0000 0.0000 0.0000
vn -0.9239 0.3827 0.0000
vn 0.1951 0.9808 0.0000
vn 0.0000 0.0000 -1.0000
vn -0.0000 0.0000 1.0000
vn 0.0000 0.7151 0.6990
vn 0.0000 -0.4545 -0.8908
vn 0.0000 -1.0000 0.0000
usemtl tex_01
s 1
f 31/1/1 30/2/2 1/3/3 37/4/1
f 32/5/4 33/6/5 2/7/6 3/8/4
f 27/9/7 4/10/7 5/11/8 28/12/8
f 22/13/9 28/12/8 5/11/8 20/14/9
f 6/15/10 7/16/11 8/17/11 21/18/10
f 7/16/11 9/19/12 10/20/12 8/17/11
f 9/19/12 11/21/13 26/22/13 10/20/12
f 11/21/13 12/23/14 13/24/14 26/22/13
f 12/23/14 14/25/15 24/26/15 13/24/14
f 14/25/15 2/7/6 33/6/5 24/26/15
f 30/2/2 29/27/16 15/28/16 1/3/3
f 29/27/16 16/29/17 23/30/17 15/28/16
f 16/29/17 17/31/18 18/32/18 23/30/17
f 17/31/18 19/33/19 25/34/19 18/32/18
f 19/33/19 4/10/7 27/9/7 25/34/19
f 20/14/20 6/15/20 21/18/20 22/13/20
f 24/35/21 33/36/21 1/37/21 15/38/21 23/39/21 18/40/21 25/41/21 27/42/21 28/43/21 22/44/21 21/45/21 8/46/21 10/47/21 26/48/21 13/49/21
f 16/29/22 29/27/22 30/2/22 2/7/22 14/25/22 12/23/22 11/21/22 9/19/22 7/16/22 6/15/22 20/14/22 5/11/22 4/10/22 19/33/22 17/31/22
f 3/8/23 2/7/23 30/2/23 31/1/23
f 32/5/24 37/4/24 1/3/24 33/6/24
f 31/1/22 34/50/22 35/51/22 3/8/22
f 36/52/21 38/53/21 37/4/21 32/5/21
f 36/52/13 32/5/13 3/8/13 35/51/13
f 34/50/18 31/1/18 37/4/18 38/53/18
f 35/51/25 34/50/25 38/53/25 36/52/25
