# Blender v2.81 (sub 16) OBJ File: 'Drill hole.blend'
# www.blender.org
mtllib Drill hole.mtl
o Cone
v 0.265467 0.208231 0.449651
v -0.024854 0.244126 -0.489441
v -0.481040 0.119736 0.027302
v -0.676712 -0.187854 -0.585668
v 0.393027 -0.066746 0.821038
v 0.284256 0.188792 -0.393523
v 0.513593 0.330873 0.092732
v -0.462762 -0.186438 0.795563
v -0.883183 -0.168450 0.198518
v -0.385987 0.160158 -0.303772
v -0.355279 -0.207741 -0.968619
v -0.445654 0.277726 0.248782
v -0.148723 -0.010216 -0.627252
v -0.577644 0.085366 -0.182886
v -0.828912 -0.001413 0.162900
v -0.715534 -0.004670 0.344885
v 0.160682 0.038110 0.544580
v 0.507183 0.101411 0.397820
v 0.487831 0.041836 -0.574487
v 0.527543 0.162317 -0.383890
v -0.819704 -0.069023 0.015979
v -0.518159 -0.164333 -0.695463
v -0.228202 -0.111358 -0.857376
v -0.382512 0.136328 0.618813
v 0.793441 -0.179899 -0.388337
v 0.714455 -0.224050 0.779686
v 0.470568 -0.199934 0.931792
v -0.316278 -0.003799 -0.680082
v -0.684358 -0.085193 -0.201768
v -0.229559 -0.055530 0.681043
v 0.103315 0.083815 0.791082
v 0.599734 0.075377 -0.212709
v 0.293089 0.080907 -0.630351
v 0.055677 0.068939 -0.674551
v -0.052686 0.205916 0.491603
v -0.482162 -0.130925 0.538864
v -0.628175 -0.140156 0.640423
v -0.452789 0.127202 -0.143745
v 0.830293 -0.161568 0.547943
v -0.142050 0.150510 0.642234
v -0.052270 0.279643 -0.637566
v -0.032284 -0.031523 -0.644814
v -0.252699 0.074321 -0.392157
v -0.697083 -0.071963 -0.379258
v -0.595083 0.013860 0.163631
v -0.699676 -0.169491 0.464088
v -0.593093 0.188030 0.328887
v -0.049484 -0.063780 0.801323
v 0.583265 0.053358 0.558932
v 0.351061 0.064870 0.544497
v 0.617749 0.213406 0.029651
v 0.180646 -0.101194 -0.956937
v 0.326053 -0.063929 -0.788000
v 0.599275 -0.087668 -0.523781
v 0.699970 -0.013037 -0.474781
v 0.646598 -0.102527 -0.094711
v 0.922893 -0.034511 -0.018461
v 0.573826 0.157648 0.192038
v 0.776274 -0.128610 0.405241
v 0.648842 -0.088094 0.676446
v 0.412333 -0.084192 0.576870
v 0.245397 -0.196573 0.823338
v -0.279899 -0.139704 0.909896
v -0.429029 -0.021686 0.769836
v -0.870668 -0.179121 0.422302
v -0.828460 -0.153713 -0.240734
v -0.796435 -0.123357 -0.485104
v -0.330776 -0.075436 -0.918876
v -0.562131 0.198876 -0.404341
v -0.448409 0.047943 0.452145
v 0.671260 0.070869 0.085435
v 0.188796 -0.074738 -0.636156
v 0.753479 -0.018950 0.016918
v -0.712521 0.069762 -0.061919
v -0.418558 -0.058904 -0.575950
v -0.298748 0.108796 -0.542916
v -0.037964 -0.130682 -0.936926
v -0.600817 -0.084421 -0.602343
v -0.472930 -0.022221 -0.451425
v -0.909513 -0.166723 -0.079827
v -0.089132 -0.171539 0.956556
v 0.031154 0.053797 0.653168
v 0.125888 -0.122337 0.938821
v 0.630808 0.044800 0.330532
v 0.883861 -0.184436 0.257052
v 0.803387 -0.039892 0.217464
v 0.936722 -0.166357 -0.097460
v 0.843004 -0.071566 -0.197001
v 0.681840 -0.112701 -0.331111
v 0.677086 -0.199299 -0.609549
v 0.613714 0.004872 -0.750340
v 0.588897 -0.179477 -0.805582
v 0.091327 -0.130407 -0.798540
v 0.380556 -0.189785 -0.753641
v 0.334704 0.055564 -0.444346
v 0.639269 -0.124263 0.391520
v 0.398961 0.107087 0.246689
v 0.268008 -0.083881 0.750661
v 0.398372 -0.169543 0.230000
v 0.325269 -0.170603 0.325269
v -0.230000 -0.167868 0.398372
v 0.230000 -0.170973 0.398372
v 0.444326 -0.168657 0.119057
v -0.325269 -0.172115 -0.325269
v -0.398372 -0.170143 -0.230000
v -0.444326 -0.167338 0.119057
v -0.398372 -0.167536 0.230000
v -0.444326 -0.168706 -0.119057
v -0.230000 -0.173355 -0.398372
v 0.398372 -0.167021 -0.230000
v 0.478139 0.107024 -0.120714
v 0.325269 -0.167731 -0.325269
v 0.119057 -0.172123 -0.444326
v 0.000000 -0.173359 -0.460000
v 0.444326 -0.167268 -0.119057
v -0.119057 -0.173779 -0.444326
v 0.000000 -0.169589 0.460000
v 0.230000 -0.170155 -0.398372
v 0.145778 0.083067 -0.442468
v -0.119057 -0.168378 0.444326
v 0.119057 -0.170628 0.444326
v -0.460000 -0.167469 0.000000
v 0.460000 -0.168023 -0.000000
v -0.325269 -0.167717 0.325269
v -0.299582 0.133392 0.421197
vt 0.825034 0.324227
vt 0.887860 0.380869
vt 0.839940 0.475188
vt 0.868381 0.650690
vt 0.825034 0.626149
vt 0.515709 -0.088206
vt 0.402489 -0.108081
vt 0.349867 -0.119433
vt 0.380920 1.099513
vt 0.289267 1.038582
vt 0.402488 1.058456
vt 0.115207 -0.060223
vt 0.093163 0.062754
vt 0.023644 0.183553
vt 0.621214 -0.029938
vt 0.646497 -0.119964
vt 0.711813 0.062754
vt 0.183763 -0.029938
vt -0.020057 0.324226
vt -0.070686 0.432779
vt 0.547799 1.046425
vt 0.515709 1.038582
vt 0.790174 0.152537
vt 0.781333 0.183554
vt 0.674097 0.976611
vt 0.711813 0.887621
vt 0.781333 0.766822
vt 0.621214 0.980313
vt -0.028768 0.647651
vt -0.034963 0.475187
vt -0.020058 0.626148
vt 0.289268 -0.088206
vt 0.023644 0.766822
vt 0.017511 0.874803
vt 0.093163 0.887621
vt 0.183762 0.980313
vt 0.162639 0.981936
vt 0.125815 1.151233
vt 0.356784 1.267128
vt -0.019166 0.154574
vt -0.156161 0.053067
vt -0.023866 -0.096615
vt -0.175459 -0.345596
vt -0.059397 -0.220882
vt 0.166724 -0.424939
vt 0.043866 -0.298060
vt -0.006879 -0.484662
vt 0.518790 -0.738437
vt 0.501865 -0.510451
vt 0.342362 -0.543950
vt 0.573268 1.303045
vt 0.674076 1.268015
vt 0.715885 1.467100
vt 0.894640 0.952403
vt 1.073136 1.073015
vt 0.978976 1.138229
vt -0.042087 -0.532942
vt -0.145789 0.702525
vt -0.293784 0.038208
vt -0.169840 0.288999
vt 0.876415 -0.023670
vt 0.944492 0.223453
vt 1.007698 0.070707
vt 1.038901 0.324749
vt 0.457681 1.344003
vt 0.730483 1.044183
vt 0.992009 0.748316
vt 1.053739 0.901717
vt 1.035424 0.600042
vt 1.101968 0.442018
vt 0.993367 0.413934
vt 0.259011 -0.354245
vt 0.424545 -0.346570
vt -0.125413 0.978320
vt 0.367815 1.295705
vt 0.363754 1.656362
vt 0.261060 1.284947
vt -0.088226 1.367022
vt 0.000691 1.220910
vt 0.097230 1.605409
vt 0.052896 1.710393
vt 0.106920 1.353602
vt -0.227888 0.982247
vt -0.049628 1.058049
vt -0.399027 0.794648
vt -0.267364 0.729063
vt -0.359811 1.116167
vt -0.390846 0.453182
vt -0.371016 0.269713
vt 0.136778 -0.667057
vt 0.297862 -0.738860
vt 0.984675 -0.381195
vt 0.844757 -0.681362
vt 1.081623 -0.506334
vt 0.754803 -0.215600
vt 0.951984 -0.205736
vt 1.191109 -0.224036
vt 1.007656 -0.018708
vt 1.245425 0.136011
vt 1.146993 -0.033829
vt 1.185017 0.720661
vt 0.774788 1.442140
vt 0.864358 1.194799
vt 0.971177 1.406945
vt 0.960180 1.459508
vt 0.476653 1.493823
vt 0.786347 -0.566469
vt 0.639289 -0.464733
vt 0.630665 -0.581671
vt -0.266232 -0.118542
vt -0.174162 1.237138
vt 0.199439 1.548522
vt 1.163023 0.202227
vt 1.038792 1.264171
vt 1.179090 0.964741
vt -0.258913 1.229039
vt -0.275133 0.548664
vt -0.432399 -0.062702
vt 0.548498 -0.227977
vt 0.791501 -0.269765
vt 1.271698 0.496485
vt 1.297618 0.608948
vt 0.573586 1.682529
vt -0.442617 0.230024
vt -0.473749 0.592349
vn -0.9832 0.1295 -0.1287
vn -0.9912 0.1022 0.0839
vn -0.1297 0.0651 -0.9894
vn 0.1299 0.0774 0.9885
vn 0.7872 0.1252 -0.6038
vn -0.6011 0.1620 -0.7826
vn 0.5970 0.1968 -0.7777
vn 0.9117 -0.0269 -0.4100
vn -0.1897 0.0408 0.9810
vn -0.8128 0.0515 -0.5803
vn -0.2003 0.0911 -0.9755
vn -0.8792 0.0733 -0.4708
vn -0.8082 0.0114 0.5888
vn -0.9176 0.1154 0.3803
vn -0.4841 0.0614 0.8728
vn 0.9907 0.0392 0.1300
vn 0.2894 0.1002 -0.9520
vn 0.1309 0.1014 -0.9862
vn 0.9195 0.0554 0.3891
vn 0.5881 0.0460 0.8075
vn 0.3840 0.0127 0.9232
vn 0.9966 0.0687 0.0449
vn -0.3830 0.0334 0.9232
vn 0.7900 0.1053 0.6040
vn -0.3500 0.8109 -0.4689
vn 0.1720 0.7870 0.5924
vn 0.0120 0.8459 -0.5332
vn 0.1157 0.9841 -0.1350
vn -0.6221 0.7479 0.2315
vn 0.2601 0.8600 -0.4389
vn -0.3795 0.7067 0.5971
vn -0.7291 -0.2168 0.6491
vn -0.2821 0.8098 0.5144
vn -0.3898 0.7219 0.5717
vn -0.4885 0.7765 0.3980
vn -0.3941 0.6957 0.6005
vn 0.2363 -0.1736 0.9560
vn 0.0599 0.9077 0.4151
vn -0.1168 0.7311 0.6722
vn -0.0044 0.6320 -0.7749
vn 0.1174 0.8110 -0.5731
vn 0.5328 0.6920 -0.4870
vn 0.3393 0.9085 -0.2437
vn 0.6688 0.6100 -0.4249
vn 0.5312 0.7095 -0.4630
vn -0.4957 -0.6054 0.6227
vn 0.4974 0.8398 0.2176
vn -0.5357 0.8441 -0.0208
vn 0.4536 0.8653 -0.2133
vn -0.6348 0.6778 0.3709
vn -0.5488 0.8289 -0.1082
vn -0.7089 0.6187 -0.3385
vn -0.1876 0.9821 -0.0145
vn 0.4190 0.8770 0.2350
vn 0.5201 0.7024 0.4859
vn 0.6269 0.5537 0.5480
vn 0.7621 0.6010 0.2405
vn -0.2641 0.6347 0.7262
vn 0.1265 0.4759 -0.8703
vn 0.3700 0.7987 -0.4745
vn -0.3703 0.9247 0.0875
vn 0.5867 0.7951 0.1536
vn 0.7102 0.6962 -0.1044
vn 0.4944 0.8692 -0.0047
vn -0.5153 0.8428 0.1550
vn 0.3935 0.8342 -0.3863
vn 0.7349 0.6187 -0.2774
vn 0.0201 0.7842 0.6201
vn 0.1077 0.9278 0.3572
vn 0.1965 0.9145 -0.3537
vn 0.4970 0.7788 0.3826
vn -0.4659 0.8156 -0.3429
vn -0.1852 0.5669 -0.8027
vn 0.1807 -0.0710 -0.9810
vn -0.0492 0.6193 -0.7836
vn -0.6970 -0.0764 -0.7129
vn -0.4790 0.7827 -0.3973
vn -0.0819 0.6963 -0.7130
vn -0.3598 -0.5720 -0.7371
vn -0.2516 0.8654 -0.4334
vn -0.5938 0.7938 -0.1314
vn -0.4406 0.5546 -0.7058
vn -0.9666 0.1261 -0.2231
vn -0.6744 0.7087 -0.2070
vn -0.8943 0.0016 -0.4473
vn -0.6889 0.7135 -0.1275
vn -0.6258 0.7797 -0.0167
vn -0.2484 -0.1668 0.9542
vn -0.1501 -0.2787 0.9486
vn 0.3774 0.7624 0.5257
vn 0.1791 -0.3246 0.9287
vn 0.6376 -0.4163 0.6482
vn 0.1565 0.7142 0.6822
vn 0.3659 0.8407 0.3992
vn 0.9811 -0.1370 0.1364
vn 0.5760 0.7914 0.2045
vn 0.8659 -0.4574 0.2023
vn 0.2709 0.9312 0.2438
vn 0.5434 0.7733 -0.3265
vn 0.3404 -0.2742 -0.8994
vn 0.2914 0.8634 -0.4118
vn 0.4273 0.7308 -0.5322
vn 0.3116 -0.4699 -0.8259
vn -0.0302 0.9622 -0.2705
vn -0.0021 0.8090 0.5878
vn 0.1577 0.7656 0.6237
vn 0.2044 -0.2661 0.9420
vn -0.7173 -0.2113 0.6639
vn -0.3531 0.7342 -0.5799
vn 0.3946 0.5713 -0.7196
vn 0.6575 0.6931 0.2954
vn 0.7565 -0.5658 -0.3278
vn 0.8279 -0.4294 -0.3608
vn -0.4729 -0.5997 -0.6456
vn 0.4333 0.4882 0.7575
vn -0.6295 0.7682 -0.1168
vn -0.1715 0.9826 0.0714
vn -0.7625 -0.3091 0.5683
vn 0.1812 0.7929 0.5817
vn 0.3670 0.7476 0.5535
vn 0.7533 0.6562 0.0438
vn 0.8338 -0.5184 -0.1897
vn -0.3218 0.1288 -0.9380
vn -0.8754 -0.4623 0.1412
vn -0.9326 -0.3188 -0.1688
vn 0.2123 -0.8919 0.3993
vn 0.3278 -0.8683 0.3723
vn 0.4224 -0.8699 0.2546
vn 0.4605 -0.8776 0.1330
vn 0.4679 -0.8826 0.0450
vn 0.4442 -0.8897 -0.1053
vn 0.4118 -0.8837 -0.2225
vn 0.3569 -0.8671 -0.3475
vn 0.2085 -0.8693 -0.4482
vn 0.0984 -0.8689 -0.4851
vn -0.0208 -0.8684 -0.4953
vn -0.1027 -0.8664 -0.4886
vn -0.2009 -0.8782 -0.4341
vn -0.3694 -0.8583 -0.3560
vn -0.4192 -0.8638 -0.2794
vn -0.4699 -0.8650 -0.1757
vn -0.4994 -0.8660 -0.0255
vn -0.4804 -0.8716 0.0976
vn -0.4106 -0.8817 0.2324
vn -0.3287 -0.8820 0.3375
vn -0.2161 -0.8759 0.4314
vn -0.1346 -0.8773 0.4606
vn -0.0155 -0.8759 0.4823
vn 0.1372 -0.8770 0.4604
vn 0.0070 -0.9996 0.0260
vn -0.0113 -0.9997 -0.0198
vn -0.0353 -0.9994 0.0057
vn -0.0182 -0.9998 0.0057
vn -0.0083 -1.0000 0.0044
vn -0.0067 -0.9999 -0.0108
vn -0.0053 -1.0000 0.0036
vn 0.0081 -1.0000 -0.0043
vn 0.0007 -1.0000 -0.0023
vn 0.0274 -0.9995 -0.0136
vn 0.0193 -0.9998 -0.0089
vn -0.0081 -0.9999 0.0086
vn 0.0053 -0.9999 0.0152
vn 0.0066 -0.9997 0.0246
vn -0.0083 -0.9999 -0.0145
vn -0.0001 -1.0000 0.0007
usemtl Material
s off
f 103/1/1 7/2/1 123/3/1
f 111/4/2 115/5/2 123/3/2 7/2/2
f 121/6/3 117/7/3 35/8/3
f 2/9/4 116/10/4 114/11/4
f 125/12/5 124/13/5 107/14/5
f 102/15/6 1/16/6 100/17/6
f 124/13/7 125/12/7 101/18/7
f 107/14/8 106/19/8 3/20/8 125/12/8
f 119/21/9 2/9/9 114/11/9 113/22/9
f 100/17/10 1/16/10 97/23/10 99/24/10
f 102/15/11 121/6/11 35/8/11 1/16/11
f 97/23/12 7/2/12 103/1/12 99/24/12
f 111/4/13 6/25/13 112/26/13 110/27/13
f 110/27/14 115/5/14 111/4/14
f 118/28/15 112/26/15 6/25/15 119/21/15
f 38/29/16 122/30/16 108/31/16
f 125/12/17 35/8/17 120/32/17 101/18/17
f 35/8/18 117/7/18 120/32/18
f 105/33/19 10/34/19 38/29/19 108/31/19
f 104/35/20 109/36/20 43/37/20 10/34/20
f 43/37/21 109/36/21 116/10/21 2/9/21
f 122/30/22 38/29/22 3/20/22 106/19/22
f 119/21/23 113/22/23 118/28/23
f 10/34/24 105/33/24 104/35/24
s 1
f 76/38/25 2/9/26 41/39/27
f 12/40/28 47/41/29 125/12/30
f 70/42/31 37/43/32 36/44/33
f 30/45/34 24/46/35 64/47/36
f 83/48/37 31/49/38 48/50/39
f 72/51/40 33/52/41 53/53/42
f 20/54/43 55/55/44 54/56/45
f 8/57/46 64/47/36 37/43/32
f 38/29/47 14/58/48 3/20/49
f 16/59/50 47/41/29 45/60/51
f 97/23/52 1/16/53 18/61/54
f 58/62/55 84/63/56 71/64/57
f 41/39/27 119/21/58 34/65/59
f 95/66/60 6/25/61 20/54/43
f 32/67/62 89/68/63 55/55/44
f 56/69/64 111/4/65 73/70/66
f 51/71/67 73/70/66 111/4/65
f 97/23/52 18/61/54 58/62/55
f 40/72/68 48/50/39 82/73/69
f 35/8/70 24/46/35 40/72/68
f 14/58/48 10/34/71 69/74/72
f 42/75/73 77/76/74 13/77/75
f 22/78/76 75/79/77 68/80/78
f 22/78/76 68/80/78 11/81/79
f 76/38/25 28/82/80 75/79/77
f 44/83/81 69/74/72 79/84/82
f 66/85/83 29/86/84 67/87/85
f 45/60/51 21/88/86 15/89/87
f 24/46/35 70/42/31 36/44/33
f 63/90/88 30/45/34 64/47/36
f 40/72/68 63/90/88 48/50/39
f 81/91/89 48/50/39 63/90/88
f 48/50/39 81/91/89 83/48/37
f 60/92/90 27/93/91 26/94/92
f 18/61/54 50/95/93 49/96/94
f 39/97/95 60/92/90 26/94/92
f 18/61/54 96/98/96 84/63/56
f 85/99/97 59/100/98 39/97/95
f 88/101/99 111/4/65 56/69/64
f 32/67/62 88/101/99 89/68/63
f 94/102/100 19/103/101 91/104/102
f 94/102/100 91/104/102 92/105/103
f 95/66/60 19/103/101 33/52/41
f 93/106/104 34/65/59 72/51/40
f 5/107/105 98/108/106 62/109/107
f 36/44/33 37/43/32 64/47/36
f 37/43/32 47/41/29 46/110/108
f 16/59/50 45/60/51 15/89/87
f 79/84/82 78/111/109 67/87/85
f 78/111/109 79/84/82 75/79/77
f 76/38/25 41/39/27 13/77/75
f 28/82/80 13/77/75 23/112/110
f 96/98/96 86/113/111 84/63/56
f 94/102/100 53/53/42 33/52/41
f 90/114/112 91/104/102 54/56/45
f 25/115/113 55/55/44 89/68/63
f 67/87/85 78/111/109 4/116/114
f 69/74/72 76/38/25 79/84/82
f 76/38/25 43/37/115 2/9/26
f 34/65/59 42/75/73 41/39/27
f 74/117/116 45/60/51 3/20/49
f 30/45/34 40/72/68 24/46/35
f 6/25/61 111/4/65 20/54/43
f 72/51/40 34/65/59 33/52/41
f 41/39/27 2/9/26 119/21/58
f 19/103/101 20/54/43 54/56/45
f 88/101/99 32/67/62 111/4/65
f 111/4/65 7/2/117 51/71/67
f 73/70/66 51/71/67 71/64/57
f 58/62/55 18/61/54 84/63/56
f 45/60/51 74/117/116 21/88/86
f 74/117/116 3/20/49 14/58/48
f 29/86/84 74/117/116 14/58/48
f 14/58/48 44/83/81 29/86/84
f 44/83/81 14/58/48 69/74/72
f 28/82/80 68/80/78 75/79/77
f 78/111/109 22/78/76 4/116/114
f 69/74/72 10/34/71 76/38/25
f 65/118/118 46/110/108 16/59/50
f 70/42/31 47/41/29 37/43/32
f 24/46/35 125/12/30 70/42/31
f 24/46/35 35/8/70 125/12/30
f 40/72/68 30/45/34 63/90/88
f 40/72/68 82/73/69 35/8/70
f 98/108/106 31/49/38 83/48/37
f 98/108/106 83/48/37 62/109/107
f 17/119/119 1/16/53 35/8/70
f 5/107/105 62/109/107 27/93/91
f 5/107/105 60/92/90 61/120/120
f 27/93/91 60/92/90 5/107/105
f 86/113/111 59/100/98 85/99/97
f 58/62/55 71/64/57 51/71/67
f 73/70/66 86/113/111 57/121/121
f 87/122/122 57/121/121 86/113/111
f 88/101/99 57/121/121 87/122/122
f 20/54/43 32/67/62 55/55/44
f 54/56/45 55/55/44 90/114/112
f 25/115/113 90/114/112 55/55/44
f 92/105/103 91/104/102 90/114/112
f 33/52/41 19/103/101 94/102/100
f 52/123/123 53/53/42 94/102/100
f 93/106/104 72/51/40 52/123/123
f 34/65/59 119/21/58 33/52/41
f 42/75/73 34/65/59 93/106/104
f 19/103/101 54/56/45 91/104/102
f 59/100/98 86/113/111 96/98/96
f 50/95/93 18/61/54 1/16/53
f 61/120/120 50/95/93 5/107/105
f 31/49/38 98/108/106 17/119/119
f 82/73/69 17/119/119 35/8/70
f 16/59/50 15/89/87 9/124/124
f 14/58/48 38/29/47 10/34/71
f 44/83/81 67/87/85 29/86/84
f 67/87/85 44/83/81 79/84/82
f 10/34/71 43/37/115 76/38/25
f 22/78/76 78/111/109 75/79/77
f 49/96/94 96/98/96 18/61/54
f 60/92/90 49/96/94 61/120/120
f 39/97/95 49/96/94 60/92/90
f 31/49/38 17/119/119 82/73/69
f 9/124/124 65/118/118 16/59/50
f 1/16/53 17/119/119 50/95/93
f 95/66/60 33/52/41 6/25/61
f 76/38/25 75/79/77 79/84/82
f 28/82/80 76/38/25 13/77/75
f 77/76/74 23/112/110 13/77/75
f 41/39/27 42/75/73 13/77/75
f 23/112/110 11/81/79 68/80/78
f 21/88/86 29/86/84 66/85/83
f 21/88/86 74/117/116 29/86/84
f 66/85/83 80/125/125 21/88/86
f 80/125/125 9/124/124 21/88/86
f 15/89/87 21/88/86 9/124/124
f 16/59/50 46/110/108 47/41/29
f 48/50/39 31/49/38 82/73/69
f 50/95/93 61/120/120 49/96/94
f 85/99/97 87/122/122 86/113/111
f 88/101/99 87/122/122 25/115/113
f 111/4/65 32/67/62 20/54/43
f 52/123/123 77/76/74 93/106/104
f 53/53/42 52/123/123 72/51/40
f 56/69/64 57/121/121 88/101/99
f 73/70/66 57/121/121 56/69/64
f 96/98/96 49/96/94 39/97/95
f 47/41/29 70/42/31 125/12/30
f 28/82/80 23/112/110 68/80/78
f 93/106/104 77/76/74 42/75/73
f 109/36/126 104/35/127 105/33/128 108/31/129 122/30/130 106/19/131 107/14/132 124/13/133 101/18/134 120/32/135 117/7/136 121/6/137 102/15/138 27/93/91 62/109/107 83/48/37 81/91/89 63/90/88 8/57/46 37/43/32 46/110/108 65/118/118 9/124/124 80/125/125 66/85/83 67/87/85 4/116/114 22/78/76 11/81/79
f 47/41/29 12/40/28 3/20/49 45/60/51
f 102/15/138 100/17/139 99/24/140 103/1/141 123/3/142 115/5/143 110/27/144 112/26/145 118/28/146 113/22/147 114/11/148 116/10/149 109/36/126 11/81/79 23/112/110 77/76/74 52/123/123 94/102/100 92/105/103 90/114/112 25/115/113 87/122/122 85/99/97 39/97/95 26/94/92 27/93/91
f 17/119/119 98/108/106 5/107/105 50/95/93
f 64/47/36 24/46/35 36/44/33
f 63/90/88 64/47/36 8/57/46
f 19/103/101 95/66/60 20/54/43
f 86/113/111 71/64/57 84/63/56
f 7/2/117 58/62/55 51/71/67
f 73/70/66 71/64/57 86/113/111
f 25/115/113 89/68/63 88/101/99
f 33/52/41 119/21/58 6/25/61
f 58/62/55 7/2/117 97/23/52
f 96/98/96 39/97/95 59/100/98
f 125/12/30 3/20/49 12/40/28
usemtl Pitch_Black
s off
f 114/11/150 113/22/150 104/35/150
f 116/10/150 114/11/150 109/36/150
f 117/7/151 99/24/151 100/17/151
f 114/11/150 104/35/150 109/36/150
f 122/30/152 108/31/152 106/19/152
f 113/22/150 118/28/150 105/33/150
f 106/19/153 108/31/153 107/14/153
f 113/22/150 105/33/150 104/35/150
f 107/14/154 108/31/154 124/13/154
f 120/32/155 103/1/155 99/24/155
f 108/31/156 120/32/156 124/13/156
f 123/3/157 103/1/157 112/26/157
f 103/1/158 108/31/158 112/26/158
f 110/27/159 115/5/159 112/26/159
f 112/26/160 115/5/160 123/3/160
f 120/32/161 101/18/161 124/13/161
f 112/26/162 108/31/162 105/33/162
f 118/28/163 112/26/163 105/33/163
f 117/7/164 120/32/164 99/24/164
f 102/15/151 121/6/151 100/17/151
f 121/6/151 117/7/151 100/17/151
f 120/32/165 108/31/165 103/1/165
