# Blender v2.81 (sub 16) OBJ File: 'rock boulder.blend'
# www.blender.org
mtllib rock3.mtl
o Sphere.002
v -0.012396 0.959134 -0.871910
v -0.007590 0.677157 -0.999986
v 0.249777 1.047174 -0.546427
v 0.134483 1.130285 -0.462365
v 0.452592 0.019521 -0.898857
v 0.984246 -0.431484 -0.475103
v 0.807616 -0.872727 -0.334523
v 0.517624 1.250072 -0.190920
v 0.808459 0.667482 -0.266072
v 1.022171 0.219009 -0.159634
v 1.003549 0.000000 0.000000
v 1.087773 -0.476812 -0.159605
v 0.740267 -1.049263 0.060509
v 0.637293 1.030184 0.263977
v 0.941679 0.459607 0.368527
v 0.288842 -1.159104 0.202269
v 0.416641 -0.881284 0.416641
v 0.173615 1.333116 0.576701
v 0.057813 -0.701443 0.875837
v -0.011856 1.166046 0.929955
v -0.000000 0.819685 1.229654
v -0.016028 -0.049226 1.128806
v 0.078018 -0.966294 0.581748
v -0.216073 -0.016263 1.137188
v -0.234238 -0.496590 1.177615
v -0.204236 -0.701600 1.006103
v -0.562407 -0.681458 0.846830
v -0.837158 0.888214 0.381404
v -0.987018 0.501291 0.197598
v -0.962918 -0.406511 0.191536
v -0.196318 -1.089353 0.000664
v -0.793453 0.808122 -0.157825
v -0.981704 -0.414393 -0.195272
v -0.603036 -0.941682 -0.016485
v -0.950457 0.469483 -0.286520
v -0.870231 -0.229057 -0.552439
v -0.532008 0.018710 -1.084415
v -0.244405 0.478152 -1.138800
v -0.222687 0.000000 -1.119533
v -0.026179 -0.840359 -0.576249
v 0.168694 -0.649091 -0.857792
v -0.057923 -0.534202 -0.883602
vt 0.188974 1.093747
vt 0.171317 0.810163
vt 0.240089 0.575525
vt 0.425870 0.495783
vt 0.473478 0.822698
vt 0.471899 1.012392
vt 0.608910 1.121295
vt 0.630912 1.454995
vt 0.512354 1.502797
vt 0.280637 1.405993
vt 0.265844 1.252480
vt 0.233789 1.222525
vt 0.043534 0.312659
vt 0.122132 0.344813
vt -0.025881 0.458839
vt 0.682750 -0.261186
vt 0.606379 -0.430126
vt 0.679428 -0.465260
vt 0.472083 0.452544
vt 0.310789 0.318114
vt 0.288715 0.105456
vt 0.410985 0.209064
vt 0.559961 0.396690
vt 0.536871 0.452544
vt 0.630912 0.517407
vt 0.597812 0.903704
vt 0.025298 -0.540155
vt 0.126374 -0.478768
vt 0.171317 -0.370549
vt -0.198606 -0.282892
vt -0.139172 -0.457269
vt -0.196221 -0.472147
vt 0.672752 0.948905
vt 0.847949 0.853552
vt 0.958294 0.846547
vt 0.920501 1.253440
vt 0.807351 1.339087
vt 0.696444 1.200928
vt -0.124180 0.380670
vt -0.148413 0.549741
vt -0.264365 0.437217
vt -0.132825 0.673925
vt -0.000148 1.044868
vt -0.225127 0.960076
vt -0.300513 0.826328
vt -0.324946 -0.128908
vt 0.127952 0.016104
vt 0.171317 0.037917
vt 0.167897 0.241337
vt -0.359963 0.156128
vt -0.047101 0.574178
vt 0.074166 0.549741
vt 0.086794 0.770853
vt 0.086794 1.039783
vt 0.782727 0.468661
vt 0.973940 0.452544
vt 1.026369 0.570319
vt 0.942051 0.739182
vt 0.630912 0.768247
vt 0.669838 0.527748
vt 0.682750 0.024812
vt 0.648049 -0.112215
vt 0.614509 0.185077
vt 0.648594 0.218610
vt 0.171317 -0.142014
vt 0.221357 -0.223938
vt 0.437712 -0.254081
vt 0.010064 1.291104
vt 0.043238 1.248016
vt -0.061851 1.539263
vt -0.171254 1.540155
vt -0.358907 1.392329
vt -0.359963 1.236093
vt 0.085093 1.164899
vt 1.026369 1.253887
vt 0.970674 1.378091
vt 0.189484 -0.380598
vt 0.403659 -0.538644
vt 0.475141 -0.540155
vn -0.7226 0.4103 -0.5563
vn -0.3469 0.9282 -0.1349
vn 0.3214 -0.6926 0.6458
vn -0.1154 -0.0452 -0.9923
vn 0.8940 0.4468 -0.0342
vn -0.9950 0.0031 -0.1002
vn -0.8956 0.4292 -0.1172
vn 0.6820 0.5363 0.4972
vn 0.0792 -0.9028 -0.4227
vn 0.4068 -0.6680 0.6232
vn -0.7876 -0.5937 0.1648
vn 0.7051 -0.1952 0.6818
vn -0.2822 -0.9031 0.3236
vn -0.4451 -0.6565 -0.6089
vn 0.1803 0.4093 -0.8944
vn 0.6729 0.3039 -0.6745
vn -0.7266 0.0871 0.6815
vn 0.8393 -0.5053 -0.2005
vn 0.3753 -0.2513 -0.8922
usemtl rock_1
s off
f 1/1/1 38/2/1 37/3/1 36/4/1 35/5/1 32/6/1
f 32/6/2 28/7/2 20/8/2 18/9/2 8/10/2 4/11/2 3/12/2 1/1/2
f 19/13/3 26/14/3 23/15/3
f 38/16/4 39/17/4 37/18/4
f 14/19/5 15/20/5 10/21/5 9/22/5 8/23/5
f 35/5/6 36/4/6 33/24/6 30/25/6 29/26/6
f 32/6/7 35/5/7 29/26/7 28/7/7
f 18/27/8 20/28/8 21/29/8 15/30/8 14/31/8 8/32/8
f 31/33/9 40/34/9 41/35/9 7/36/9 13/37/9 16/38/9
f 17/39/10 23/15/10 16/40/10 13/41/10
f 34/42/11 27/43/11 30/44/11 33/45/11
f 10/46/12 15/30/12 21/29/12 22/47/12 24/48/12 25/49/12 26/14/12 19/13/12 23/15/12 17/39/12 13/41/12 12/50/12
f 27/43/13 34/42/13 31/51/13 16/52/13 23/53/13 26/54/13
f 36/55/14 37/56/14 39/57/14 42/58/14 41/35/14 40/34/14 31/33/14 34/59/14 33/60/14
f 38/16/15 1/61/15 2/62/15
f 2/62/16 1/61/16 3/63/16 4/64/16 8/23/16 9/22/16 10/21/16 12/65/16 6/66/16 5/67/16 38/16/16
f 24/68/17 22/69/17 21/70/17 20/71/17 28/72/17 29/73/17 30/44/17 27/43/17 26/54/17 25/74/17
f 7/36/18 6/75/18 12/76/18 13/37/18
f 7/77/19 41/78/19 42/79/19 39/17/19 38/16/19 5/67/19 6/66/19
l 11 10
